# xmcd
#
# Track frame offsets:
#	150
#	24636
#	54729
#	72817
#	85902
#	101684
#	121999
#	135124
#	145265
#	166569
#	178811
#	192439
#	218151
#	234240
#	245360
#	257009
#
# Disc length: 3606
#
# Revision: 3
# Processed by: cddbd v1.5.1PL0 Copyright (c) Steve Scherf et al.
# Submitted via: CDex 1.51
# Normalized: r1:TDELIM( - ),TSWAP
#
DISCID=d70e1410
DTITLE=Various Artist - The Ultimate Blues Collection
DYEAR=2004
DGENRE=Blues
TTITLE0=B.B. King - The Thrill Is Gone
TTITLE1=The Band with Muddy Waters - Mannish Boy
TTITLE2=Stevie Ray Vaughan - Cold Shot
TTITLE3=Howlin' Wolf - I Ain't Superstitious
TTITLE4=Taj Mahal - She Caught The Katie And Left Me A Mule To Ride
TTITLE5=Colin James - Fixin' To Die
TTITLE6=Ray Charles - Ray's Blues
TTITLE7=Buddy Guy and Junior Wells - Messin' With The Kid
TTITLE8=ZZ Top - Blue Jean Blues
TTITLE9=John Hammond - Shake For Me
TTITLE10=Keb' Mo' - Every Morning
TTITLE11=Otis Rush - Gambler's Blues
TTITLE12=Sonny Terry and Brownie McGhee - Bring It On Home To Me
TTITLE13=The Paul Butterfield Blues Band - Shake Your Moneymaker
TTITLE14=Sonny Boy Williamson - Don't Start Me Talkin'
TTITLE15=Koko Taylor - Wang Dang Doodle
EXTD=YEAR: 2004
EXTT0=
EXTT1=
EXTT2=
EXTT3=
EXTT4=
EXTT5=
EXTT6=
EXTT7=
EXTT8=
EXTT9=
EXTT10=
EXTT11=
EXTT12=
EXTT13=
EXTT14=
EXTT15=
PLAYORDER=
